<svg width="24" height="30" viewBox="0 0 24 30" fill="none" xmlns="http://www.w3.org/2000/svg">
<path d="M22.7333 6.66667H1.26667C0.567106 6.66667 0 7.23378 0 7.93334V8.06667C0 8.76623 0.567106 9.33334 1.26667 9.33334H22.7333C23.4329 9.33334 24 8.76623 24 8.06667V7.93334C24 7.23378 23.4329 6.66667 22.7333 6.66667Z" fill="#35414B"/>
<path d="M22.7333 13.3333H1.26667C0.567106 13.3333 0 13.9004 0 14.6V14.7333C0 15.4329 0.567106 16 1.26667 16H22.7333C23.4329 16 24 15.4329 24 14.7333V14.6C24 13.9004 23.4329 13.3333 22.7333 13.3333Z" fill="#35414B"/>
<path d="M22.7333 0H1.26667C0.567106 0 0 0.567106 0 1.26667V1.4C0 2.09956 0.567106 2.66667 1.26667 2.66667H22.7333C23.4329 2.66667 24 2.09956 24 1.4V1.26667C24 0.567106 23.4329 0 22.7333 0Z" fill="#35414B"/>
<path d="M0.778764 23.1818V29H1.43786V24.5795H1.49467L3.31286 29H3.94922L5.7674 24.5795H5.82422V29H6.48331V23.1818H5.6424L3.66513 28.0114H3.59695L1.61967 23.1818H0.778764ZM7.89595 29H11.4528V28.375H8.6005V26.3977H11.2255V25.7727H8.6005V23.8068H11.4073V23.1818H7.89595V29ZM17.2908 23.1818H16.5977V27.7614H16.5408L13.359 23.1818H12.6772V29H13.3817V24.4318H13.4386L16.609 29H17.2908V23.1818ZM22.5188 23.1818V26.9773C22.5188 27.8295 21.9336 28.4432 20.962 28.4432C19.9904 28.4432 19.4052 27.8295 19.4052 26.9773V23.1818H18.7006V27.0341C18.7006 28.2273 19.5927 29.1023 20.962 29.1023C22.3313 29.1023 23.2234 28.2273 23.2234 27.0341V23.1818H22.5188Z" fill="#4E5A65"/>
</svg>
